<svg width="192" height="192" viewBox="0 0 192 192" fill="none" xmlns="http://www.w3.org/2000/svg">
  <rect width="192" height="192" rx="24" fill="#D4AF37"/>
  <path d="M96 40C78.3 40 64 54.3 64 72C64 89.7 78.3 104 96 104C113.7 104 128 89.7 128 72C128 54.3 113.7 40 96 40ZM96 88C87.2 88 80 80.8 80 72C80 63.2 87.2 56 96 56C104.8 56 112 63.2 112 72C112 80.8 104.8 88 96 88Z" fill="#2D4A3E"/>
  <path d="M96 120C75.6 120 56 136.6 56 152V160H136V152C136 136.6 116.4 120 96 120ZM120 144H72V140C72 133.4 78.4 128 88 128H104C113.6 128 120 133.4 120 140V144Z" fill="#2D4A3E"/>
  <circle cx="96" cy="72" r="8" fill="#2D4A3E"/>
</svg>