<svg width="512" height="512" viewBox="0 0 512 512" fill="none" xmlns="http://www.w3.org/2000/svg">
  <rect width="512" height="512" rx="64" fill="#D4AF37"/>
  <path d="M256 120C224.8 120 200 144.8 200 176C200 207.2 224.8 232 256 232C287.2 232 312 207.2 312 176C312 144.8 287.2 120 256 120ZM256 200C240.5 200 228 187.5 228 172C228 156.5 240.5 144 256 144C271.5 144 284 156.5 284 172C284 187.5 271.5 200 256 200Z" fill="#2D4A3E"/>
  <path d="M256 280C210.1 280 168 305.1 168 336V360H344V336C344 305.1 301.9 280 256 280ZM312 328H200V320C200 310.1 210.1 300 224 300H288C301.9 300 312 310.1 312 320V328Z" fill="#2D4A3E"/>
  <circle cx="256" cy="176" r="20" fill="#2D4A3E"/>
</svg>